<svg width="58" height="57" viewBox="0 0 58 57" fill="none" xmlns="http://www.w3.org/2000/svg">
<g filter="url(#filter0_dd)">
<rect x="1" width="56" height="56" rx="6.73482" fill="#030F4F"/>
<g filter="url(#filter1_d)">
<path d="M18.3086 28.0083V42.3843C18.3086 43.9899 19.6102 45.2915 21.2158 45.2915H36.765C38.3707 45.2915 39.6723 43.9899 39.6723 42.3843V28.0083M18.3086 28.0083V13.6323C18.3086 12.0267 19.6102 10.7251 21.2158 10.7251H36.7651C38.3707 10.7251 39.6723 12.0267 39.6723 13.6323V28.0083M18.3086 28.0083H39.6723" stroke="#030F4F" stroke-width="3.63404" stroke-linecap="square"/>
</g>
<path d="M39.6787 17.0044L39.6787 29.7268" stroke="url(#paint0_linear)" stroke-width="3.63404" stroke-linecap="square"/>
<path d="M33.0713 10.7256H18.3086V28.0088M30.1908 45.292H18.3086V40.6112" stroke="url(#paint1_radial)" stroke-width="3.63404" stroke-linecap="square"/>
<path d="M39.6787 27.5703L39.6787 18.3684" stroke="url(#paint2_linear)" stroke-width="3.63404" stroke-linecap="square"/>
<path d="M18.3086 28.0085H31.9911M18.3086 28.0085V40.6108M18.3086 28.0085V23.8076" stroke="url(#paint3_linear)" stroke-width="3.63404" stroke-linecap="square"/>
<path d="M28.9834 28.0034L31.993 28.0034" stroke="url(#paint4_linear)" stroke-width="3.63404" stroke-linecap="square"/>
<path d="M24.0244 28.0034L21.9452 28.0012" stroke="url(#paint5_linear)" stroke-width="3.63404" stroke-linecap="square"/>
<path d="M20.1262 18.8169H16.4922V25.2614C16.4922 27.4958 18.0434 29.3679 20.1276 29.8596V25.3168C20.1267 25.2984 20.1262 25.28 20.1262 25.2614V18.8169Z" fill="#F5A21C"/>
<g filter="url(#filter2_d)">
<path d="M20.1262 18.8169H16.4922V25.2614C16.4922 27.4958 18.0434 29.3679 20.1276 29.8596V25.3168C20.1267 25.2984 20.1262 25.28 20.1262 25.2614V18.8169Z" fill="#F5A21C"/>
</g>
<path d="M18.3086 20.9878V13.6328C18.3086 12.0272 19.6102 10.7256 21.2158 10.7256H36.7651C38.3707 10.7256 39.6723 12.0272 39.6723 13.6328V15.0464M34.1515 28.0088H36.765C38.3707 28.0088 39.6723 29.3104 39.6723 30.916V42.3848C39.6723 43.9904 38.3707 45.292 36.765 45.292H21.2158C19.6102 45.292 18.3086 43.9904 18.3086 42.3848V40.6112" stroke="#F5A21C" stroke-width="3.63404" stroke-linecap="square"/>
</g>
<defs>
<filter id="filter0_dd" x="0.932652" y="0" width="56.1347" height="56.1347" filterUnits="userSpaceOnUse" color-interpolation-filters="sRGB">
<feFlood flood-opacity="0" result="BackgroundImageFix"/>
<feColorMatrix in="SourceAlpha" type="matrix" values="0 0 0 0 0 0 0 0 0 0 0 0 0 0 0 0 0 0 127 0"/>
<feOffset dy="0.0673482"/>
<feGaussianBlur stdDeviation="0.0336741"/>
<feColorMatrix type="matrix" values="0 0 0 0 0 0 0 0 0 0 0 0 0 0 0 0 0 0 0.25 0"/>
<feBlend mode="normal" in2="BackgroundImageFix" result="effect1_dropShadow"/>
<feColorMatrix in="SourceAlpha" type="matrix" values="0 0 0 0 0 0 0 0 0 0 0 0 0 0 0 0 0 0 127 0"/>
<feOffset dy="0.0673482"/>
<feGaussianBlur stdDeviation="0.0336741"/>
<feColorMatrix type="matrix" values="0 0 0 0 0 0 0 0 0 0 0 0 0 0 0 0 0 0 0.25 0"/>
<feBlend mode="normal" in2="effect1_dropShadow" result="effect2_dropShadow"/>
<feBlend mode="normal" in="SourceGraphic" in2="effect2_dropShadow" result="shape"/>
</filter>
<filter id="filter1_d" x="12.282" y="4.69894" width="33.4162" height="46.619" filterUnits="userSpaceOnUse" color-interpolation-filters="sRGB">
<feFlood flood-opacity="0" result="BackgroundImageFix"/>
<feColorMatrix in="SourceAlpha" type="matrix" values="0 0 0 0 0 0 0 0 0 0 0 0 0 0 0 0 0 0 127 0"/>
<feOffset/>
<feGaussianBlur stdDeviation="2.10463"/>
<feColorMatrix type="matrix" values="0 0 0 0 0 0 0 0 0 0.0230263 0 0 0 0 0.145833 0 0 0 1 0"/>
<feBlend mode="normal" in2="BackgroundImageFix" result="effect1_dropShadow"/>
<feBlend mode="normal" in="SourceGraphic" in2="effect1_dropShadow" result="shape"/>
</filter>
<filter id="filter2_d" x="12.2829" y="17.1332" width="12.0539" height="19.4612" filterUnits="userSpaceOnUse" color-interpolation-filters="sRGB">
<feFlood flood-opacity="0" result="BackgroundImageFix"/>
<feColorMatrix in="SourceAlpha" type="matrix" values="0 0 0 0 0 0 0 0 0 0 0 0 0 0 0 0 0 0 127 0"/>
<feOffset dy="2.52556"/>
<feGaussianBlur stdDeviation="2.10463"/>
<feColorMatrix type="matrix" values="0 0 0 0 0 0 0 0 0 0 0 0 0 0 0 0 0 0 0.25 0"/>
<feBlend mode="normal" in2="BackgroundImageFix" result="effect1_dropShadow"/>
<feBlend mode="normal" in="SourceGraphic" in2="effect1_dropShadow" result="shape"/>
</filter>
<linearGradient id="paint0_linear" x1="38.6281" y1="6.68247" x2="38.6281" y2="36.2734" gradientUnits="userSpaceOnUse">
<stop offset="0.044606" stop-color="#F5A21C"/>
<stop offset="1" stop-color="#864141" stop-opacity="0.49"/>
</linearGradient>
<radialGradient id="paint1_radial" cx="0" cy="0" r="1" gradientUnits="userSpaceOnUse" gradientTransform="translate(17.7782 28.0172) rotate(-90) scale(24.018 20.2379)">
<stop offset="0.393855"/>
<stop offset="1" stop-color="#F5A21C"/>
</radialGradient>
<linearGradient id="paint2_linear" x1="39.6787" y1="39.2406" x2="39.6787" y2="14.352" gradientUnits="userSpaceOnUse">
<stop offset="0.518128" stop-color="#F5A21C" stop-opacity="0"/>
<stop offset="1" stop-opacity="0.55"/>
</linearGradient>
<linearGradient id="paint3_linear" x1="10.7472" y1="22.6075" x2="33.4314" y2="40.9709" gradientUnits="userSpaceOnUse">
<stop stop-color="#F5A21C"/>
<stop offset="1" stop-color="#F5A21C" stop-opacity="0.5"/>
</linearGradient>
<linearGradient id="paint4_linear" x1="11.1208" y1="28.0033" x2="36.0094" y2="28.0033" gradientUnits="userSpaceOnUse">
<stop offset="0.518128" stop-color="#F5A21C" stop-opacity="0"/>
<stop offset="1" stop-opacity="0.55"/>
</linearGradient>
<linearGradient id="paint5_linear" x1="36.3653" y1="28.0169" x2="19.1704" y2="27.9983" gradientUnits="userSpaceOnUse">
<stop offset="0.518128" stop-color="#F5A21C" stop-opacity="0"/>
<stop offset="1" stop-opacity="0.55"/>
</linearGradient>
</defs>
</svg>
